<svg id="Capa_1" data-name="Capa 1" xmlns="http://www.w3.org/2000/svg" xmlns:xlink="http://www.w3.org/1999/xlink" viewBox="0 0 622.96 203.26"><defs><style>.cls-1{fill:none;}.cls-2{fill:#3c3c3b;}.cls-3,.cls-5{fill:#8be333;}.cls-3{fill-rule:evenodd;}.cls-4{clip-path:url(#clip-path);}.cls-6{fill:#fff;}</style><clipPath id="clip-path" transform="translate(-80.34 -183.26)"><rect class="cls-1" x="154.69" y="228.16" width="126.05" height="60.37" transform="translate(161.13 -74.73) rotate(30.48)"/></clipPath></defs><title>cih</title><rect class="cls-2" x="99.57" y="51.1" width="523.4" height="102.39" rx="31.57" ry="31.57"/><circle class="cls-2" cx="101.63" cy="101.63" r="101.63"/><path class="cls-3" d="M139.83,286.65c-1.7-.12-4.31.62-5.12,1.81-3.4,5,5.23,4.26,7.65,4.37-1.57,1.33-7.56,7.62-7.92,9.11-.41,1.66-.4,14.95-.44,17.81-.06,4.13-1,13.86,2.59,15.19a32.67,32.67,0,0,0,8,.14c3-.66,2.34-3.37,2.47-6.59,10.46-.73,49-.73,59.44,0,.13,3-.46,5.69,2.13,6.51a29.44,29.44,0,0,0,8.39-.06c4.47-1.64,2.15-17.92,2.24-23.47.16-9.7-.14-12.43-8-18.64,2.58-.12,10.31.81,7.84-4.07-.74-1.47-5.47-3.32-7.22-1.28-3.54,4.14-3.16-.31-6.39-5-3.76-7.53-4.7-7.4-16.5-7.27-3.89-.18-8.09-.33-12-.34-4,0-19.56.47-22.92,1.25-3.28.07-7.58,8.55-9.1,11.55-2.4,4.71-2-.81-5.21-1.05ZM145,292c9.93.17,21.21-1.22,31.59-1.22,10.75,0,21.49,1.13,32.05,1.22L203,281c-1-1.71-1.08-2.37-3.33-2.74-8.31-1.36-36.55-1.18-45.14-.06-3.15.42-3.12,1.66-5.58,6A63.21,63.21,0,0,0,145,292Zm15.6,22.46a5.31,5.31,0,0,0,5.29,5.29h21.88a5.31,5.31,0,0,0,5.29-5.29v-3.66a5.32,5.32,0,0,0-5.29-5.29H165.9a5.32,5.32,0,0,0-5.29,5.29Zm-6.73,0a6.49,6.49,0,0,0,2.89-3.13c-3.27-1.93-15.4-2.78-19.12-2.05-1.68,9.88,12.81,6.81,16.23,5.18Zm43-3.13a6.49,6.49,0,0,0,2.89,3.13c3.42,1.63,17.91,4.7,16.23-5.18-3.72-.73-15.85.12-19.12,2.05Z" transform="translate(-80.34 -183.26)"/><g class="cls-4"><path class="cls-5" d="M148,308.59a2.13,2.13,0,0,0,2.13,2.28l25.66,0,0-21s-.35-3.47,3-3.47H189.5c4,0,3.73,3.47,3.73,3.47l0,21H218.3A2.63,2.63,0,0,0,221,308V269.18L185.6,237.7,148,269.18Zm0,0" transform="translate(-80.34 -183.26)"/><path class="cls-5" d="M134.19,266.25s3.18,5.89,10.15,0l41.57-35.17,39,34.95c8.06,5.81,11.07,0,11.07,0l-50.07-45.34Zm0,0" transform="translate(-80.34 -183.26)"/><path class="cls-5" d="M221.18,232.45l-10,0v12.17l10,8.51Zm0,3.35" transform="translate(-80.34 -183.26)"/></g><rect class="cls-2" x="124.69" y="275.36" width="126.05" height="22.5" transform="translate(90.98 -238.87) rotate(30.48)"/><circle class="cls-2" cx="153.66" cy="130.84" r="19.55"/><circle class="cls-2" cx="55.91" cy="73.06" r="19.55"/><path class="cls-6" d="M171,269.69l-3.26-1.9M161.36,278l3.52,2.06,47,27.6,7.54,4.41a14.23,14.23,0,0,0,19,15.36s7.21-2.62,8.9-10A14.24,14.24,0,0,0,226,302l-8-4.71-50.28-29.5-16.87-9.86a14.23,14.23,0,0,0-5.09-11.58h0c-4.11-3.46-9.06-4.83-14.37-2.29l9,7.54-1.17,7.77-7.46,2.49-9.1-7.66a15.24,15.24,0,0,0,4.82,13.91,14.28,14.28,0,0,0,17.71.46l16.2,9.47m76.41,29.63,4.37,6.88L238.36,321l-8.14-.46-4.37-6.88,3.78-6.44Zm0,0" transform="translate(-80.34 -183.26)"/><path class="cls-6" d="M312.43,271.46l-3.2,4.91a1,1,0,0,1-1.47.27,8.17,8.17,0,0,0-4.72-1.31,8.57,8.57,0,0,0-6.48,2.74,9.65,9.65,0,0,0,0,13.21A8.59,8.59,0,0,0,303,294a8.49,8.49,0,0,0,4.9-1.43.94.94,0,0,1,.58-.19.8.8,0,0,1,.71.49l3.2,4.83c.36.59.28,1-.23,1.34a17.11,17.11,0,0,1-9.16,2.58,17.71,17.71,0,0,1-6.77-1.3,16.15,16.15,0,0,1-5.38-3.56,16.51,16.51,0,0,1-3.5-5.4,18.12,18.12,0,0,1,0-13.38,15.89,15.89,0,0,1,8.88-9,17.35,17.35,0,0,1,6.77-1.32,16.69,16.69,0,0,1,9,2.48A.87.87,0,0,1,312.43,271.46Z" transform="translate(-80.34 -183.26)"/><path class="cls-6" d="M324.22,301.17h-6.07a.8.8,0,0,1-.9-.9V269a.79.79,0,0,1,.9-.89h6.07c.57,0,.86.29.86.89v11.52h11V269a.79.79,0,0,1,.9-.89H343a.79.79,0,0,1,.9.89v31.23a.8.8,0,0,1-.9.9H337a.8.8,0,0,1-.9-.9V288.43h-11v11.84C325.08,300.87,324.79,301.17,324.22,301.17Z" transform="translate(-80.34 -183.26)"/><path class="cls-6" d="M350.38,268.15h19c.57,0,.85.29.85.89v5.9a.75.75,0,0,1-.85.85H357.32v5.14h10.4a.78.78,0,0,1,.86.89v5.67c0,.6-.29.9-.86.9h-10.4v5.13h12.11c.6,0,.9.29.9.85v5.9a.8.8,0,0,1-.9.9H350.38a.79.79,0,0,1-.89-.9V269A.79.79,0,0,1,350.38,268.15Z" transform="translate(-80.34 -183.26)"/><path class="cls-6" d="M399.59,271.46l-3.2,4.91a1,1,0,0,1-1.47.27,8.17,8.17,0,0,0-4.72-1.31,8.57,8.57,0,0,0-6.48,2.74,9.66,9.66,0,0,0,0,13.21,8.61,8.61,0,0,0,6.5,2.73,8.49,8.49,0,0,0,4.9-1.43.92.92,0,0,1,.58-.19.8.8,0,0,1,.71.49l3.2,4.83c.36.59.28,1-.23,1.34a17.14,17.14,0,0,1-9.16,2.58,17.71,17.71,0,0,1-6.77-1.3,16.15,16.15,0,0,1-5.38-3.56,16.51,16.51,0,0,1-3.5-5.4,18.12,18.12,0,0,1,0-13.38,15.89,15.89,0,0,1,8.88-9,17.35,17.35,0,0,1,6.77-1.32,16.69,16.69,0,0,1,9,2.48Q400,270.56,399.59,271.46Z" transform="translate(-80.34 -183.26)"/><path class="cls-6" d="M432.55,301.17H425.2a1.84,1.84,0,0,1-1.61-.9l-8.25-12.51-3.1,3.46v9c0,.6-.29.9-.86.9H405.3a.79.79,0,0,1-.89-.9V269a.79.79,0,0,1,.89-.89h6.08c.57,0,.86.29.86.89V280.6L422.32,269a2.16,2.16,0,0,1,1.75-.85H432c.26,0,.41.08.45.25a.82.82,0,0,1-.22.64l-11.16,13.13,12,18.1c.17.26.21.47.11.64A.61.61,0,0,1,432.55,301.17Z" transform="translate(-80.34 -183.26)"/><path class="cls-6" d="M457,301.17h-6.08a.8.8,0,0,1-.9-.9V269a.79.79,0,0,1,.9-.89H457c.57,0,.85.29.85.89v31.23C457.85,300.87,457.57,301.17,457,301.17Z" transform="translate(-80.34 -183.26)"/><path class="cls-6" d="M492.21,301.17h-6.13a1.73,1.73,0,0,1-1.51-.9l-13.34-18.54v18.54c0,.6-.28.9-.85.9H464.3a.8.8,0,0,1-.9-.9V269a.79.79,0,0,1,.9-.89h6.13A1.74,1.74,0,0,1,472,269l13.33,18.54V269c0-.6.28-.89.85-.89h6.08a.79.79,0,0,1,.9.89v31.23A.8.8,0,0,1,492.21,301.17Z" transform="translate(-80.34 -183.26)"/><path class="cls-6" d="M519.29,301.17h-6.08a.8.8,0,0,1-.9-.9V269a.79.79,0,0,1,.9-.89h6.08c.57,0,.85.29.85.89v11.52h11V269a.79.79,0,0,1,.89-.89h6.08a.79.79,0,0,1,.9.89v31.23a.8.8,0,0,1-.9.9H532a.79.79,0,0,1-.89-.9V288.43h-11v11.84C520.14,300.87,519.86,301.17,519.29,301.17Z" transform="translate(-80.34 -183.26)"/><path class="cls-6" d="M559.91,267.69a17.12,17.12,0,0,1,6.68,1.32,17,17,0,1,1-15.28,30.4,16.15,16.15,0,0,1-6.1-6.12,17.81,17.81,0,0,1,0-17.22,16.27,16.27,0,0,1,6.1-6.14A16.82,16.82,0,0,1,559.91,267.69Zm-6.49,23.59a8.59,8.59,0,0,0,6.49,2.73,8.77,8.77,0,0,0,6.55-2.73,9.51,9.51,0,0,0,0-13.2,8.78,8.78,0,0,0-6.54-2.75,8.57,8.57,0,0,0-6.48,2.74,9.68,9.68,0,0,0,0,13.21Z" transform="translate(-80.34 -183.26)"/><path class="cls-6" d="M581.72,268.15h6.08c.57,0,.85.29.85.89v17.64q0,7.32,5.89,7.33t5.9-7.33V269a.79.79,0,0,1,.9-.89h6.08c.56,0,.85.29.85.89v19.12a13.1,13.1,0,0,1-3.78,9.73,15.12,15.12,0,0,1-19.91,0,13.13,13.13,0,0,1-3.76-9.73V269A.79.79,0,0,1,581.72,268.15Z" transform="translate(-80.34 -183.26)"/><path class="cls-6" d="M633.25,271.6l-3.11,4.67a.76.76,0,0,1-.76.42,1.12,1.12,0,0,1-.62-.19,10,10,0,0,0-5.09-1.31,3.74,3.74,0,0,0-2.16.58,1.78,1.78,0,0,0-.37,2.73,4.24,4.24,0,0,0,1.29.95,17.91,17.91,0,0,0,1.87.82c.7.27,1.44.56,2.22.89s1.55.67,2.32,1.06a12.33,12.33,0,0,1,2.23,1.42,11.52,11.52,0,0,1,1.86,1.9,8.26,8.26,0,0,1,1.29,2.57,11,11,0,0,1,.48,3.34,10,10,0,0,1-.39,2.74,9.67,9.67,0,0,1-1.29,2.73,10.47,10.47,0,0,1-2.18,2.38,10.25,10.25,0,0,1-3.27,1.68,14,14,0,0,1-4.36.65,15.29,15.29,0,0,1-5.58-1,21,21,0,0,1-5-2.86.9.9,0,0,1-.3-1.24l3.08-4.65a1,1,0,0,1,.74-.44,1,1,0,0,1,.62.23,13.65,13.65,0,0,0,3.25,1.76,9.25,9.25,0,0,0,3.32.7,4.08,4.08,0,0,0,2.64-.72,2.28,2.28,0,0,0,.88-1.83,2.19,2.19,0,0,0-.6-1.5,5,5,0,0,0-1.59-1.13l-2.24-1-2.57-1.06a13.37,13.37,0,0,1-2.57-1.38,13.82,13.82,0,0,1-2.24-1.89,7.53,7.53,0,0,1-1.59-2.66,10.37,10.37,0,0,1-.6-3.62,8.68,8.68,0,0,1,3.21-7,12,12,0,0,1,8-2.68,15.13,15.13,0,0,1,4.58.65,19.51,19.51,0,0,1,4.29,2A.86.86,0,0,1,633.25,271.6Z" transform="translate(-80.34 -183.26)"/><path class="cls-6" d="M639.84,268.15h19c.56,0,.85.29.85.89v5.9a.75.75,0,0,1-.85.85H646.77v5.14h10.41c.57,0,.85.3.85.89v5.67c0,.6-.28.9-.85.9H646.77v5.13h12.11c.6,0,.9.29.9.85v5.9a.8.8,0,0,1-.9.9h-19a.8.8,0,0,1-.9-.9V269A.79.79,0,0,1,639.84,268.15Z" transform="translate(-80.34 -183.26)"/></svg>